<?xml version="1.0" encoding="utf-8" standalone="no"?>
<!DOCTYPE svg PUBLIC "-//W3C//DTD SVG 1.1//EN"
  "http://www.w3.org/Graphics/SVG/1.1/DTD/svg11.dtd">
<svg xmlns:xlink="http://www.w3.org/1999/xlink" width="795.6pt" height="457.92pt" viewBox="0 0 795.6 457.92" xmlns="http://www.w3.org/2000/svg" version="1.1">
 <metadata>
  <rdf:RDF xmlns:dc="http://purl.org/dc/elements/1.1/" xmlns:cc="http://creativecommons.org/ns#" xmlns:rdf="http://www.w3.org/1999/02/22-rdf-syntax-ns#">
   <cc:Work>
    <dc:type rdf:resource="http://purl.org/dc/dcmitype/StillImage"/>
    <dc:date>2026-02-26T11:45:11.028433</dc:date>
    <dc:format>image/svg+xml</dc:format>
    <dc:creator>
     <cc:Agent>
      <dc:title>Matplotlib v3.10.5, https://matplotlib.org/</dc:title>
     </cc:Agent>
    </dc:creator>
   </cc:Work>
  </rdf:RDF>
 </metadata>
 <defs>
  <style type="text/css">*{stroke-linejoin: round; stroke-linecap: butt}</style>
 </defs>
 <g id="figure_1">
  <g id="patch_1">
   <path d="M 0 457.92 
L 795.6 457.92 
L 795.6 0 
L 0 0 
z
" style="fill: #f4f7fb"/>
  </g>
  <g id="axes_1">
   <g id="patch_2">
    <path d="M 149.815012 153.5616 
Q 206.405476 153.5616 260.536265 153.5616 
" clip-path="url(#pa11d5097d1)" style="fill: none; stroke: #0ea5e9; stroke-width: 2.2; stroke-linecap: round"/>
    <path d="M 254.936265 150.7616 
L 260.536265 153.5616 
L 254.936265 156.3616 
z
" clip-path="url(#pa11d5097d1)" style="fill: #0ea5e9; stroke: #0ea5e9; stroke-width: 2.2; stroke-linecap: round"/>
   </g>
   <g id="patch_3">
    <path d="M 345.115012 153.5616 
Q 401.705476 153.5616 455.836265 153.5616 
" clip-path="url(#pa11d5097d1)" style="fill: none; stroke: #0ea5e9; stroke-width: 2.2; stroke-linecap: round"/>
    <path d="M 450.236265 150.7616 
L 455.836265 153.5616 
L 450.236265 156.3616 
z
" clip-path="url(#pa11d5097d1)" style="fill: #0ea5e9; stroke: #0ea5e9; stroke-width: 2.2; stroke-linecap: round"/>
   </g>
   <g id="patch_4">
    <path d="M 540.415012 153.5616 
Q 589.192406 153.5616 635.510126 153.5616 
" clip-path="url(#pa11d5097d1)" style="fill: none; stroke: #f97316; stroke-width: 2.2; stroke-linecap: round"/>
    <path d="M 629.910126 150.7616 
L 635.510126 153.5616 
L 629.910126 156.3616 
z
" clip-path="url(#pa11d5097d1)" style="fill: #f97316; stroke: #f97316; stroke-width: 2.2; stroke-linecap: round"/>
   </g>
   <g id="patch_5">
    <path d="M 647.784 177.73945 
Q 647.784 209.00415 647.784 237.809175 
" clip-path="url(#pa11d5097d1)" style="fill: none; stroke: #f97316; stroke-width: 2.2; stroke-linecap: round"/>
    <path d="M 650.584 232.209175 
L 647.784 237.809175 
L 644.984 232.209175 
z
" clip-path="url(#pa11d5097d1)" style="fill: #f97316; stroke: #f97316; stroke-width: 2.2; stroke-linecap: round"/>
   </g>
   <g id="patch_6">
    <path d="M 345.111342 317.508198 
Q 515.697818 303.845671 629.162724 179.040376 
" clip-path="url(#pa11d5097d1)" style="fill: none; stroke-dasharray: 11,8.8; stroke-dashoffset: 0; stroke: #94a3b8; stroke-width: 2.2; stroke-linecap: round"/>
    <path d="M 623.323869 181.300414 
L 629.162724 179.040376 
L 627.467442 185.067483 
z
" clip-path="url(#pa11d5097d1)" style="fill: #94a3b8; stroke-dasharray: 11,8.8; stroke-dashoffset: 0; stroke: #94a3b8; stroke-width: 2.2; stroke-linecap: round"/>
   </g>
   <g id="patch_7">
    <path d="M 345.106532 153.714258 
Q 504.062089 166.177276 628.620668 261.722369 
" clip-path="url(#pa11d5097d1)" style="fill: none; stroke-dasharray: 11,8.8; stroke-dashoffset: 0; stroke: #a855f7; stroke-width: 2.2; stroke-linecap: round"/>
    <path d="M 625.881509 256.092359 
L 628.620668 261.722369 
L 622.473165 260.535691 
z
" clip-path="url(#pa11d5097d1)" style="fill: #a855f7; stroke-dasharray: 11,8.8; stroke-dashoffset: 0; stroke: #a855f7; stroke-width: 2.2; stroke-linecap: round"/>
   </g>
   <g id="text_1">
    <!-- Database Logical Model (Simplified) -->
    <g style="fill: #0f172a" transform="translate(30.636 44.663344) scale(0.21 -0.21)">
     <defs>
      <path id="Arial-BoldMT-44" d="M 463 4581 
L 2153 4581 
Q 2725 4581 3025 4494 
Q 3428 4375 3715 4072 
Q 4003 3769 4153 3330 
Q 4303 2891 4303 2247 
Q 4303 1681 4163 1272 
Q 3991 772 3672 463 
Q 3431 228 3022 97 
Q 2716 0 2203 0 
L 463 0 
L 463 4581 
z
M 1388 3806 
L 1388 772 
L 2078 772 
Q 2466 772 2638 816 
Q 2863 872 3011 1006 
Q 3159 1141 3253 1448 
Q 3347 1756 3347 2288 
Q 3347 2819 3253 3103 
Q 3159 3388 2990 3547 
Q 2822 3706 2563 3763 
Q 2369 3806 1803 3806 
L 1388 3806 
z
" transform="scale(0.015625)"/>
      <path id="Arial-BoldMT-61" d="M 1116 2306 
L 319 2450 
Q 453 2931 781 3162 
Q 1109 3394 1756 3394 
Q 2344 3394 2631 3255 
Q 2919 3116 3036 2902 
Q 3153 2688 3153 2116 
L 3144 1091 
Q 3144 653 3186 445 
Q 3228 238 3344 0 
L 2475 0 
Q 2441 88 2391 259 
Q 2369 338 2359 363 
Q 2134 144 1878 34 
Q 1622 -75 1331 -75 
Q 819 -75 523 203 
Q 228 481 228 906 
Q 228 1188 362 1408 
Q 497 1628 739 1745 
Q 981 1863 1438 1950 
Q 2053 2066 2291 2166 
L 2291 2253 
Q 2291 2506 2166 2614 
Q 2041 2722 1694 2722 
Q 1459 2722 1328 2630 
Q 1197 2538 1116 2306 
z
M 2291 1594 
Q 2122 1538 1756 1459 
Q 1391 1381 1278 1306 
Q 1106 1184 1106 997 
Q 1106 813 1243 678 
Q 1381 544 1594 544 
Q 1831 544 2047 700 
Q 2206 819 2256 991 
Q 2291 1103 2291 1419 
L 2291 1594 
z
" transform="scale(0.015625)"/>
      <path id="Arial-BoldMT-74" d="M 1981 3319 
L 1981 2619 
L 1381 2619 
L 1381 1281 
Q 1381 875 1398 808 
Q 1416 741 1477 697 
Q 1538 653 1625 653 
Q 1747 653 1978 738 
L 2053 56 
Q 1747 -75 1359 -75 
Q 1122 -75 931 4 
Q 741 84 652 211 
Q 563 338 528 553 
Q 500 706 500 1172 
L 500 2619 
L 97 2619 
L 97 3319 
L 500 3319 
L 500 3978 
L 1381 4491 
L 1381 3319 
L 1981 3319 
z
" transform="scale(0.015625)"/>
      <path id="Arial-BoldMT-62" d="M 422 0 
L 422 4581 
L 1300 4581 
L 1300 2931 
Q 1706 3394 2263 3394 
Q 2869 3394 3266 2955 
Q 3663 2516 3663 1694 
Q 3663 844 3258 384 
Q 2853 -75 2275 -75 
Q 1991 -75 1714 67 
Q 1438 209 1238 488 
L 1238 0 
L 422 0 
z
M 1294 1731 
Q 1294 1216 1456 969 
Q 1684 619 2063 619 
Q 2353 619 2558 867 
Q 2763 1116 2763 1650 
Q 2763 2219 2556 2470 
Q 2350 2722 2028 2722 
Q 1713 2722 1503 2476 
Q 1294 2231 1294 1731 
z
" transform="scale(0.015625)"/>
      <path id="Arial-BoldMT-73" d="M 150 947 
L 1031 1081 
Q 1088 825 1259 692 
Q 1431 559 1741 559 
Q 2081 559 2253 684 
Q 2369 772 2369 919 
Q 2369 1019 2306 1084 
Q 2241 1147 2013 1200 
Q 950 1434 666 1628 
Q 272 1897 272 2375 
Q 272 2806 612 3100 
Q 953 3394 1669 3394 
Q 2350 3394 2681 3172 
Q 3013 2950 3138 2516 
L 2309 2363 
Q 2256 2556 2107 2659 
Q 1959 2763 1684 2763 
Q 1338 2763 1188 2666 
Q 1088 2597 1088 2488 
Q 1088 2394 1175 2328 
Q 1294 2241 1995 2081 
Q 2697 1922 2975 1691 
Q 3250 1456 3250 1038 
Q 3250 581 2869 253 
Q 2488 -75 1741 -75 
Q 1063 -75 667 200 
Q 272 475 150 947 
z
" transform="scale(0.015625)"/>
      <path id="Arial-BoldMT-65" d="M 2381 1056 
L 3256 909 
Q 3088 428 2723 176 
Q 2359 -75 1813 -75 
Q 947 -75 531 491 
Q 203 944 203 1634 
Q 203 2459 634 2926 
Q 1066 3394 1725 3394 
Q 2466 3394 2894 2905 
Q 3322 2416 3303 1406 
L 1103 1406 
Q 1113 1016 1316 798 
Q 1519 581 1822 581 
Q 2028 581 2168 693 
Q 2309 806 2381 1056 
z
M 2431 1944 
Q 2422 2325 2234 2523 
Q 2047 2722 1778 2722 
Q 1491 2722 1303 2513 
Q 1116 2303 1119 1944 
L 2431 1944 
z
" transform="scale(0.015625)"/>
      <path id="Arial-BoldMT-20" transform="scale(0.015625)"/>
      <path id="Arial-BoldMT-4c" d="M 491 0 
L 491 4544 
L 1416 4544 
L 1416 772 
L 3716 772 
L 3716 0 
L 491 0 
z
" transform="scale(0.015625)"/>
      <path id="Arial-BoldMT-6f" d="M 256 1706 
Q 256 2144 472 2553 
Q 688 2963 1083 3178 
Q 1478 3394 1966 3394 
Q 2719 3394 3200 2905 
Q 3681 2416 3681 1669 
Q 3681 916 3195 420 
Q 2709 -75 1972 -75 
Q 1516 -75 1102 131 
Q 688 338 472 736 
Q 256 1134 256 1706 
z
M 1156 1659 
Q 1156 1166 1390 903 
Q 1625 641 1969 641 
Q 2313 641 2545 903 
Q 2778 1166 2778 1666 
Q 2778 2153 2545 2415 
Q 2313 2678 1969 2678 
Q 1625 2678 1390 2415 
Q 1156 2153 1156 1659 
z
" transform="scale(0.015625)"/>
      <path id="Arial-BoldMT-67" d="M 378 -219 
L 1381 -341 
Q 1406 -516 1497 -581 
Q 1622 -675 1891 -675 
Q 2234 -675 2406 -572 
Q 2522 -503 2581 -350 
Q 2622 -241 2622 53 
L 2622 538 
Q 2228 0 1628 0 
Q 959 0 569 566 
Q 263 1013 263 1678 
Q 263 2513 664 2953 
Q 1066 3394 1663 3394 
Q 2278 3394 2678 2853 
L 2678 3319 
L 3500 3319 
L 3500 341 
Q 3500 -247 3403 -537 
Q 3306 -828 3131 -993 
Q 2956 -1159 2664 -1253 
Q 2372 -1347 1925 -1347 
Q 1081 -1347 728 -1058 
Q 375 -769 375 -325 
Q 375 -281 378 -219 
z
M 1163 1728 
Q 1163 1200 1367 954 
Q 1572 709 1872 709 
Q 2194 709 2416 961 
Q 2638 1213 2638 1706 
Q 2638 2222 2425 2472 
Q 2213 2722 1888 2722 
Q 1572 2722 1367 2476 
Q 1163 2231 1163 1728 
z
" transform="scale(0.015625)"/>
      <path id="Arial-BoldMT-69" d="M 459 3769 
L 459 4581 
L 1338 4581 
L 1338 3769 
L 459 3769 
z
M 459 0 
L 459 3319 
L 1338 3319 
L 1338 0 
L 459 0 
z
" transform="scale(0.015625)"/>
      <path id="Arial-BoldMT-63" d="M 3353 2338 
L 2488 2181 
Q 2444 2441 2289 2572 
Q 2134 2703 1888 2703 
Q 1559 2703 1364 2476 
Q 1169 2250 1169 1719 
Q 1169 1128 1367 884 
Q 1566 641 1900 641 
Q 2150 641 2309 783 
Q 2469 925 2534 1272 
L 3397 1125 
Q 3263 531 2881 228 
Q 2500 -75 1859 -75 
Q 1131 -75 698 384 
Q 266 844 266 1656 
Q 266 2478 700 2936 
Q 1134 3394 1875 3394 
Q 2481 3394 2839 3133 
Q 3197 2872 3353 2338 
z
" transform="scale(0.015625)"/>
      <path id="Arial-BoldMT-6c" d="M 459 0 
L 459 4581 
L 1338 4581 
L 1338 0 
L 459 0 
z
" transform="scale(0.015625)"/>
      <path id="Arial-BoldMT-4d" d="M 453 0 
L 453 4581 
L 1838 4581 
L 2669 1456 
L 3491 4581 
L 4878 4581 
L 4878 0 
L 4019 0 
L 4019 3606 
L 3109 0 
L 2219 0 
L 1313 3606 
L 1313 0 
L 453 0 
z
" transform="scale(0.015625)"/>
      <path id="Arial-BoldMT-64" d="M 3503 0 
L 2688 0 
L 2688 488 
Q 2484 203 2207 64 
Q 1931 -75 1650 -75 
Q 1078 -75 670 386 
Q 263 847 263 1672 
Q 263 2516 659 2955 
Q 1056 3394 1663 3394 
Q 2219 3394 2625 2931 
L 2625 4581 
L 3503 4581 
L 3503 0 
z
M 1159 1731 
Q 1159 1200 1306 963 
Q 1519 619 1900 619 
Q 2203 619 2415 876 
Q 2628 1134 2628 1647 
Q 2628 2219 2422 2470 
Q 2216 2722 1894 2722 
Q 1581 2722 1370 2473 
Q 1159 2225 1159 1731 
z
" transform="scale(0.015625)"/>
      <path id="Arial-BoldMT-28" d="M 1916 -1347 
L 1313 -1347 
Q 834 -625 584 153 
Q 334 931 334 1659 
Q 334 2563 644 3369 
Q 913 4069 1325 4659 
L 1925 4659 
Q 1497 3713 1336 3048 
Q 1175 2384 1175 1641 
Q 1175 1128 1270 590 
Q 1366 53 1531 -431 
Q 1641 -750 1916 -1347 
z
" transform="scale(0.015625)"/>
      <path id="Arial-BoldMT-53" d="M 231 1491 
L 1131 1578 
Q 1213 1125 1461 912 
Q 1709 700 2131 700 
Q 2578 700 2804 889 
Q 3031 1078 3031 1331 
Q 3031 1494 2936 1608 
Q 2841 1722 2603 1806 
Q 2441 1863 1863 2006 
Q 1119 2191 819 2459 
Q 397 2838 397 3381 
Q 397 3731 595 4036 
Q 794 4341 1167 4500 
Q 1541 4659 2069 4659 
Q 2931 4659 3367 4281 
Q 3803 3903 3825 3272 
L 2900 3231 
Q 2841 3584 2645 3739 
Q 2450 3894 2059 3894 
Q 1656 3894 1428 3728 
Q 1281 3622 1281 3444 
Q 1281 3281 1419 3166 
Q 1594 3019 2269 2859 
Q 2944 2700 3267 2529 
Q 3591 2359 3773 2064 
Q 3956 1769 3956 1334 
Q 3956 941 3737 597 
Q 3519 253 3119 86 
Q 2719 -81 2122 -81 
Q 1253 -81 787 320 
Q 322 722 231 1491 
z
" transform="scale(0.015625)"/>
      <path id="Arial-BoldMT-6d" d="M 394 3319 
L 1203 3319 
L 1203 2866 
Q 1638 3394 2238 3394 
Q 2556 3394 2790 3262 
Q 3025 3131 3175 2866 
Q 3394 3131 3647 3262 
Q 3900 3394 4188 3394 
Q 4553 3394 4806 3245 
Q 5059 3097 5184 2809 
Q 5275 2597 5275 2122 
L 5275 0 
L 4397 0 
L 4397 1897 
Q 4397 2391 4306 2534 
Q 4184 2722 3931 2722 
Q 3747 2722 3584 2609 
Q 3422 2497 3350 2280 
Q 3278 2063 3278 1594 
L 3278 0 
L 2400 0 
L 2400 1819 
Q 2400 2303 2353 2443 
Q 2306 2584 2207 2653 
Q 2109 2722 1941 2722 
Q 1738 2722 1575 2612 
Q 1413 2503 1342 2297 
Q 1272 2091 1272 1613 
L 1272 0 
L 394 0 
L 394 3319 
z
" transform="scale(0.015625)"/>
      <path id="Arial-BoldMT-70" d="M 434 3319 
L 1253 3319 
L 1253 2831 
Q 1413 3081 1684 3237 
Q 1956 3394 2288 3394 
Q 2866 3394 3269 2941 
Q 3672 2488 3672 1678 
Q 3672 847 3265 386 
Q 2859 -75 2281 -75 
Q 2006 -75 1782 34 
Q 1559 144 1313 409 
L 1313 -1263 
L 434 -1263 
L 434 3319 
z
M 1303 1716 
Q 1303 1156 1525 889 
Q 1747 622 2066 622 
Q 2372 622 2575 867 
Q 2778 1113 2778 1672 
Q 2778 2194 2568 2447 
Q 2359 2700 2050 2700 
Q 1728 2700 1515 2451 
Q 1303 2203 1303 1716 
z
" transform="scale(0.015625)"/>
      <path id="Arial-BoldMT-66" d="M 75 3319 
L 563 3319 
L 563 3569 
Q 563 3988 652 4194 
Q 741 4400 980 4529 
Q 1219 4659 1584 4659 
Q 1959 4659 2319 4547 
L 2200 3934 
Q 1991 3984 1797 3984 
Q 1606 3984 1523 3895 
Q 1441 3806 1441 3553 
L 1441 3319 
L 2097 3319 
L 2097 2628 
L 1441 2628 
L 1441 0 
L 563 0 
L 563 2628 
L 75 2628 
L 75 3319 
z
" transform="scale(0.015625)"/>
      <path id="Arial-BoldMT-29" d="M 216 -1347 
Q 475 -791 581 -494 
Q 688 -197 778 190 
Q 869 578 912 926 
Q 956 1275 956 1641 
Q 956 2384 797 3048 
Q 638 3713 209 4659 
L 806 4659 
Q 1278 3988 1539 3234 
Q 1800 2481 1800 1706 
Q 1800 1053 1594 306 
Q 1359 -531 822 -1347 
L 216 -1347 
z
" transform="scale(0.015625)"/>
     </defs>
     <use xlink:href="#Arial-BoldMT-44"/>
     <use xlink:href="#Arial-BoldMT-61" transform="translate(72.216797 0)"/>
     <use xlink:href="#Arial-BoldMT-74" transform="translate(127.832031 0)"/>
     <use xlink:href="#Arial-BoldMT-61" transform="translate(161.132812 0)"/>
     <use xlink:href="#Arial-BoldMT-62" transform="translate(216.748047 0)"/>
     <use xlink:href="#Arial-BoldMT-61" transform="translate(277.832031 0)"/>
     <use xlink:href="#Arial-BoldMT-73" transform="translate(333.447266 0)"/>
     <use xlink:href="#Arial-BoldMT-65" transform="translate(389.0625 0)"/>
     <use xlink:href="#Arial-BoldMT-20" transform="translate(444.677734 0)"/>
     <use xlink:href="#Arial-BoldMT-4c" transform="translate(472.460938 0)"/>
     <use xlink:href="#Arial-BoldMT-6f" transform="translate(533.544922 0)"/>
     <use xlink:href="#Arial-BoldMT-67" transform="translate(594.628906 0)"/>
     <use xlink:href="#Arial-BoldMT-69" transform="translate(655.712891 0)"/>
     <use xlink:href="#Arial-BoldMT-63" transform="translate(683.496094 0)"/>
     <use xlink:href="#Arial-BoldMT-61" transform="translate(739.111328 0)"/>
     <use xlink:href="#Arial-BoldMT-6c" transform="translate(794.726562 0)"/>
     <use xlink:href="#Arial-BoldMT-20" transform="translate(822.509766 0)"/>
     <use xlink:href="#Arial-BoldMT-4d" transform="translate(850.292969 0)"/>
     <use xlink:href="#Arial-BoldMT-6f" transform="translate(933.59375 0)"/>
     <use xlink:href="#Arial-BoldMT-64" transform="translate(994.677734 0)"/>
     <use xlink:href="#Arial-BoldMT-65" transform="translate(1055.761719 0)"/>
     <use xlink:href="#Arial-BoldMT-6c" transform="translate(1111.376953 0)"/>
     <use xlink:href="#Arial-BoldMT-20" transform="translate(1139.160156 0)"/>
     <use xlink:href="#Arial-BoldMT-28" transform="translate(1166.943359 0)"/>
     <use xlink:href="#Arial-BoldMT-53" transform="translate(1200.244141 0)"/>
     <use xlink:href="#Arial-BoldMT-69" transform="translate(1266.943359 0)"/>
     <use xlink:href="#Arial-BoldMT-6d" transform="translate(1294.726562 0)"/>
     <use xlink:href="#Arial-BoldMT-70" transform="translate(1383.642578 0)"/>
     <use xlink:href="#Arial-BoldMT-6c" transform="translate(1444.726562 0)"/>
     <use xlink:href="#Arial-BoldMT-69" transform="translate(1472.509766 0)"/>
     <use xlink:href="#Arial-BoldMT-66" transform="translate(1500.292969 0)"/>
     <use xlink:href="#Arial-BoldMT-69" transform="translate(1533.59375 0)"/>
     <use xlink:href="#Arial-BoldMT-65" transform="translate(1561.376953 0)"/>
     <use xlink:href="#Arial-BoldMT-64" transform="translate(1616.992188 0)"/>
     <use xlink:href="#Arial-BoldMT-29" transform="translate(1678.076172 0)"/>
    </g>
   </g>
   <g id="text_2">
    <g id="patch_8">
     <path d="M 72.342797 166.082225 
L 145.169203 166.082225 
Q 147.769203 166.082225 147.769203 163.482225 
L 147.769203 143.640975 
Q 147.769203 141.040975 145.169203 141.040975 
L 72.342797 141.040975 
Q 69.742797 141.040975 69.742797 143.640975 
L 69.742797 163.482225 
Q 69.742797 166.082225 72.342797 166.082225 
z
" style="fill: #ffffff; stroke: #1f2937; stroke-width: 1.8; stroke-linejoin: miter"/>
    </g>
    <!-- categories -->
    <g style="fill: #111827" transform="translate(76.242797 156.846131) scale(0.13 -0.13)">
     <defs>
      <path id="Arial-BoldMT-72" d="M 1300 0 
L 422 0 
L 422 3319 
L 1238 3319 
L 1238 2847 
Q 1447 3181 1614 3287 
Q 1781 3394 1994 3394 
Q 2294 3394 2572 3228 
L 2300 2463 
Q 2078 2606 1888 2606 
Q 1703 2606 1575 2504 
Q 1447 2403 1373 2137 
Q 1300 1872 1300 1025 
L 1300 0 
z
" transform="scale(0.015625)"/>
     </defs>
     <use xlink:href="#Arial-BoldMT-63"/>
     <use xlink:href="#Arial-BoldMT-61" transform="translate(55.615234 0)"/>
     <use xlink:href="#Arial-BoldMT-74" transform="translate(111.230469 0)"/>
     <use xlink:href="#Arial-BoldMT-65" transform="translate(144.53125 0)"/>
     <use xlink:href="#Arial-BoldMT-67" transform="translate(200.146484 0)"/>
     <use xlink:href="#Arial-BoldMT-6f" transform="translate(261.230469 0)"/>
     <use xlink:href="#Arial-BoldMT-72" transform="translate(322.314453 0)"/>
     <use xlink:href="#Arial-BoldMT-69" transform="translate(361.230469 0)"/>
     <use xlink:href="#Arial-BoldMT-65" transform="translate(389.013672 0)"/>
     <use xlink:href="#Arial-BoldMT-73" transform="translate(444.628906 0)"/>
    </g>
   </g>
   <g id="text_3">
    <g id="patch_9">
     <path d="M 272.35225 165.996912 
L 335.75975 165.996912 
Q 338.35975 165.996912 338.35975 163.396912 
L 338.35975 143.726287 
Q 338.35975 141.126287 335.75975 141.126287 
L 272.35225 141.126287 
Q 269.75225 141.126287 269.75225 143.726287 
L 269.75225 163.396912 
Q 269.75225 165.996912 272.35225 165.996912 
z
" style="fill: #ffffff; stroke: #1f2937; stroke-width: 1.8; stroke-linejoin: miter"/>
    </g>
    <!-- products -->
    <g style="fill: #111827" transform="translate(276.25225 156.931444) scale(0.13 -0.13)">
     <defs>
      <path id="Arial-BoldMT-75" d="M 2644 0 
L 2644 497 
Q 2463 231 2167 78 
Q 1872 -75 1544 -75 
Q 1209 -75 943 72 
Q 678 219 559 484 
Q 441 750 441 1219 
L 441 3319 
L 1319 3319 
L 1319 1794 
Q 1319 1094 1367 936 
Q 1416 778 1544 686 
Q 1672 594 1869 594 
Q 2094 594 2272 717 
Q 2450 841 2515 1023 
Q 2581 1206 2581 1919 
L 2581 3319 
L 3459 3319 
L 3459 0 
L 2644 0 
z
" transform="scale(0.015625)"/>
     </defs>
     <use xlink:href="#Arial-BoldMT-70"/>
     <use xlink:href="#Arial-BoldMT-72" transform="translate(61.083984 0)"/>
     <use xlink:href="#Arial-BoldMT-6f" transform="translate(100 0)"/>
     <use xlink:href="#Arial-BoldMT-64" transform="translate(161.083984 0)"/>
     <use xlink:href="#Arial-BoldMT-75" transform="translate(222.167969 0)"/>
     <use xlink:href="#Arial-BoldMT-63" transform="translate(283.251953 0)"/>
     <use xlink:href="#Arial-BoldMT-74" transform="translate(338.867188 0)"/>
     <use xlink:href="#Arial-BoldMT-73" transform="translate(372.167969 0)"/>
    </g>
   </g>
   <g id="text_4">
    <g id="patch_10">
     <path d="M 462.938734 165.999959 
L 535.773266 165.999959 
Q 538.373266 165.999959 538.373266 163.399959 
L 538.373266 143.723241 
Q 538.373266 141.123241 535.773266 141.123241 
L 462.938734 141.123241 
Q 460.338734 141.123241 460.338734 143.723241 
L 460.338734 163.399959 
Q 460.338734 165.999959 462.938734 165.999959 
z
" style="fill: #ffffff; stroke: #1f2937; stroke-width: 1.8; stroke-linejoin: miter"/>
    </g>
    <!-- cart_items -->
    <g style="fill: #111827" transform="translate(466.838734 156.928397) scale(0.13 -0.13)">
     <defs>
      <path id="Arial-BoldMT-5f" d="M -59 -1266 
L -59 -697 
L 3591 -697 
L 3591 -1266 
L -59 -1266 
z
" transform="scale(0.015625)"/>
     </defs>
     <use xlink:href="#Arial-BoldMT-63"/>
     <use xlink:href="#Arial-BoldMT-61" transform="translate(55.615234 0)"/>
     <use xlink:href="#Arial-BoldMT-72" transform="translate(111.230469 0)"/>
     <use xlink:href="#Arial-BoldMT-74" transform="translate(150.146484 0)"/>
     <use xlink:href="#Arial-BoldMT-5f" transform="translate(183.447266 0)"/>
     <use xlink:href="#Arial-BoldMT-69" transform="translate(239.0625 0)"/>
     <use xlink:href="#Arial-BoldMT-74" transform="translate(266.845703 0)"/>
     <use xlink:href="#Arial-BoldMT-65" transform="translate(300.146484 0)"/>
     <use xlink:href="#Arial-BoldMT-6d" transform="translate(355.761719 0)"/>
     <use xlink:href="#Arial-BoldMT-73" transform="translate(444.677734 0)"/>
    </g>
   </g>
   <g id="text_5">
    <g id="patch_11">
     <path d="M 654.902781 165.996912 
L 703.161219 165.996912 
Q 705.761219 165.996912 705.761219 163.396912 
L 705.761219 143.726287 
Q 705.761219 141.126287 703.161219 141.126287 
L 654.902781 141.126287 
Q 652.302781 141.126287 652.302781 143.726287 
L 652.302781 163.396912 
Q 652.302781 165.996912 654.902781 165.996912 
z
" style="fill: #ffffff; stroke: #1f2937; stroke-width: 1.8; stroke-linejoin: miter"/>
    </g>
    <!-- orders -->
    <g style="fill: #111827" transform="translate(658.802781 156.931444) scale(0.13 -0.13)">
     <use xlink:href="#Arial-BoldMT-6f"/>
     <use xlink:href="#Arial-BoldMT-72" transform="translate(61.083984 0)"/>
     <use xlink:href="#Arial-BoldMT-64" transform="translate(100 0)"/>
     <use xlink:href="#Arial-BoldMT-65" transform="translate(161.083984 0)"/>
     <use xlink:href="#Arial-BoldMT-72" transform="translate(216.699219 0)"/>
     <use xlink:href="#Arial-BoldMT-73" transform="translate(255.615234 0)"/>
    </g>
   </g>
   <g id="text_6">
    <g id="patch_12">
     <path d="M 637.923563 276.879959 
L 720.140437 276.879959 
Q 722.740437 276.879959 722.740437 274.279959 
L 722.740437 254.603241 
Q 722.740437 252.003241 720.140437 252.003241 
L 637.923563 252.003241 
Q 635.323562 252.003241 635.323562 254.603241 
L 635.323562 274.279959 
Q 635.323562 276.879959 637.923563 276.879959 
z
" style="fill: #ffffff; stroke: #1f2937; stroke-width: 1.8; stroke-linejoin: miter"/>
    </g>
    <!-- order_items -->
    <g style="fill: #111827" transform="translate(641.823562 267.808397) scale(0.13 -0.13)">
     <use xlink:href="#Arial-BoldMT-6f"/>
     <use xlink:href="#Arial-BoldMT-72" transform="translate(61.083984 0)"/>
     <use xlink:href="#Arial-BoldMT-64" transform="translate(100 0)"/>
     <use xlink:href="#Arial-BoldMT-65" transform="translate(161.083984 0)"/>
     <use xlink:href="#Arial-BoldMT-72" transform="translate(216.699219 0)"/>
     <use xlink:href="#Arial-BoldMT-5f" transform="translate(255.615234 0)"/>
     <use xlink:href="#Arial-BoldMT-69" transform="translate(311.230469 0)"/>
     <use xlink:href="#Arial-BoldMT-74" transform="translate(339.013672 0)"/>
     <use xlink:href="#Arial-BoldMT-65" transform="translate(372.314453 0)"/>
     <use xlink:href="#Arial-BoldMT-6d" transform="translate(427.929688 0)"/>
     <use xlink:href="#Arial-BoldMT-73" transform="translate(516.845703 0)"/>
    </g>
   </g>
   <g id="text_7">
    <g id="patch_13">
     <path d="M 256.101234 330.102359 
L 352.010766 330.102359 
Q 354.610766 330.102359 354.610766 327.502359 
L 354.610766 307.825641 
Q 354.610766 305.225641 352.010766 305.225641 
L 256.101234 305.225641 
Q 253.501234 305.225641 253.501234 307.825641 
L 253.501234 327.502359 
Q 253.501234 330.102359 256.101234 330.102359 
z
" style="fill: #ffffff; stroke: #1f2937; stroke-width: 1.8; stroke-linejoin: miter"/>
    </g>
    <!-- pickup_points -->
    <g style="fill: #111827" transform="translate(260.001234 321.030797) scale(0.13 -0.13)">
     <defs>
      <path id="Arial-BoldMT-6b" d="M 428 0 
L 428 4581 
L 1306 4581 
L 1306 2150 
L 2334 3319 
L 3416 3319 
L 2281 2106 
L 3497 0 
L 2550 0 
L 1716 1491 
L 1306 1063 
L 1306 0 
L 428 0 
z
" transform="scale(0.015625)"/>
      <path id="Arial-BoldMT-6e" d="M 3478 0 
L 2600 0 
L 2600 1694 
Q 2600 2231 2544 2389 
Q 2488 2547 2361 2634 
Q 2234 2722 2056 2722 
Q 1828 2722 1647 2597 
Q 1466 2472 1398 2265 
Q 1331 2059 1331 1503 
L 1331 0 
L 453 0 
L 453 3319 
L 1269 3319 
L 1269 2831 
Q 1703 3394 2363 3394 
Q 2653 3394 2893 3289 
Q 3134 3184 3257 3021 
Q 3381 2859 3429 2653 
Q 3478 2447 3478 2063 
L 3478 0 
z
" transform="scale(0.015625)"/>
     </defs>
     <use xlink:href="#Arial-BoldMT-70"/>
     <use xlink:href="#Arial-BoldMT-69" transform="translate(61.083984 0)"/>
     <use xlink:href="#Arial-BoldMT-63" transform="translate(88.867188 0)"/>
     <use xlink:href="#Arial-BoldMT-6b" transform="translate(144.482422 0)"/>
     <use xlink:href="#Arial-BoldMT-75" transform="translate(200.097656 0)"/>
     <use xlink:href="#Arial-BoldMT-70" transform="translate(261.181641 0)"/>
     <use xlink:href="#Arial-BoldMT-5f" transform="translate(322.265625 0)"/>
     <use xlink:href="#Arial-BoldMT-70" transform="translate(377.880859 0)"/>
     <use xlink:href="#Arial-BoldMT-6f" transform="translate(438.964844 0)"/>
     <use xlink:href="#Arial-BoldMT-69" transform="translate(500.048828 0)"/>
     <use xlink:href="#Arial-BoldMT-6e" transform="translate(527.832031 0)"/>
     <use xlink:href="#Arial-BoldMT-74" transform="translate(588.916016 0)"/>
     <use xlink:href="#Arial-BoldMT-73" transform="translate(622.216797 0)"/>
    </g>
   </g>
   <g id="text_8">
    <g id="patch_14">
     <path d="M 87.512172 330.099312 
L 129.999828 330.099312 
Q 132.599828 330.099312 132.599828 327.499312 
L 132.599828 307.828687 
Q 132.599828 305.228687 129.999828 305.228687 
L 87.512172 305.228687 
Q 84.912172 305.228687 84.912172 307.828687 
L 84.912172 327.499312 
Q 84.912172 330.099312 87.512172 330.099312 
z
" style="fill: #ffffff; stroke: #1f2937; stroke-width: 1.8; stroke-linejoin: miter"/>
    </g>
    <!-- users -->
    <g style="fill: #111827" transform="translate(91.412172 321.033844) scale(0.13 -0.13)">
     <use xlink:href="#Arial-BoldMT-75"/>
     <use xlink:href="#Arial-BoldMT-73" transform="translate(61.083984 0)"/>
     <use xlink:href="#Arial-BoldMT-65" transform="translate(116.699219 0)"/>
     <use xlink:href="#Arial-BoldMT-72" transform="translate(172.314453 0)"/>
     <use xlink:href="#Arial-BoldMT-73" transform="translate(211.230469 0)"/>
    </g>
   </g>
   <g id="text_9">
    <!-- 1:N -->
    <g style="fill: #0ea5e9" transform="translate(198.625531 140.256) scale(0.1 -0.1)">
     <defs>
      <path id="ArialMT-31" d="M 2384 0 
L 1822 0 
L 1822 3584 
Q 1619 3391 1289 3197 
Q 959 3003 697 2906 
L 697 3450 
Q 1169 3672 1522 3987 
Q 1875 4303 2022 4600 
L 2384 4600 
L 2384 0 
z
" transform="scale(0.015625)"/>
      <path id="ArialMT-3a" d="M 578 2678 
L 578 3319 
L 1219 3319 
L 1219 2678 
L 578 2678 
z
M 578 0 
L 578 641 
L 1219 641 
L 1219 0 
L 578 0 
z
" transform="scale(0.015625)"/>
      <path id="ArialMT-4e" d="M 488 0 
L 488 4581 
L 1109 4581 
L 3516 984 
L 3516 4581 
L 4097 4581 
L 4097 0 
L 3475 0 
L 1069 3600 
L 1069 0 
L 488 0 
z
" transform="scale(0.015625)"/>
     </defs>
     <use xlink:href="#ArialMT-31"/>
     <use xlink:href="#ArialMT-3a" transform="translate(55.615234 0)"/>
     <use xlink:href="#ArialMT-4e" transform="translate(83.398438 0)"/>
    </g>
   </g>
   <g id="text_10">
    <!-- 1:N -->
    <g style="fill: #0ea5e9" transform="translate(393.925531 140.256) scale(0.1 -0.1)">
     <use xlink:href="#ArialMT-31"/>
     <use xlink:href="#ArialMT-3a" transform="translate(55.615234 0)"/>
     <use xlink:href="#ArialMT-4e" transform="translate(83.398438 0)"/>
    </g>
   </g>
   <g id="text_11">
    <!-- checkout flow -->
    <g style="fill: #f97316" transform="translate(558.902594 140.256) scale(0.1 -0.1)">
     <defs>
      <path id="ArialMT-63" d="M 2588 1216 
L 3141 1144 
Q 3050 572 2676 248 
Q 2303 -75 1759 -75 
Q 1078 -75 664 370 
Q 250 816 250 1647 
Q 250 2184 428 2587 
Q 606 2991 970 3192 
Q 1334 3394 1763 3394 
Q 2303 3394 2647 3120 
Q 2991 2847 3088 2344 
L 2541 2259 
Q 2463 2594 2264 2762 
Q 2066 2931 1784 2931 
Q 1359 2931 1093 2626 
Q 828 2322 828 1663 
Q 828 994 1084 691 
Q 1341 388 1753 388 
Q 2084 388 2306 591 
Q 2528 794 2588 1216 
z
" transform="scale(0.015625)"/>
      <path id="ArialMT-68" d="M 422 0 
L 422 4581 
L 984 4581 
L 984 2938 
Q 1378 3394 1978 3394 
Q 2347 3394 2619 3248 
Q 2891 3103 3008 2847 
Q 3125 2591 3125 2103 
L 3125 0 
L 2563 0 
L 2563 2103 
Q 2563 2525 2380 2717 
Q 2197 2909 1863 2909 
Q 1613 2909 1392 2779 
Q 1172 2650 1078 2428 
Q 984 2206 984 1816 
L 984 0 
L 422 0 
z
" transform="scale(0.015625)"/>
      <path id="ArialMT-65" d="M 2694 1069 
L 3275 997 
Q 3138 488 2766 206 
Q 2394 -75 1816 -75 
Q 1088 -75 661 373 
Q 234 822 234 1631 
Q 234 2469 665 2931 
Q 1097 3394 1784 3394 
Q 2450 3394 2872 2941 
Q 3294 2488 3294 1666 
Q 3294 1616 3291 1516 
L 816 1516 
Q 847 969 1125 678 
Q 1403 388 1819 388 
Q 2128 388 2347 550 
Q 2566 713 2694 1069 
z
M 847 1978 
L 2700 1978 
Q 2663 2397 2488 2606 
Q 2219 2931 1791 2931 
Q 1403 2931 1139 2672 
Q 875 2413 847 1978 
z
" transform="scale(0.015625)"/>
      <path id="ArialMT-6b" d="M 425 0 
L 425 4581 
L 988 4581 
L 988 1969 
L 2319 3319 
L 3047 3319 
L 1778 2088 
L 3175 0 
L 2481 0 
L 1384 1697 
L 988 1316 
L 988 0 
L 425 0 
z
" transform="scale(0.015625)"/>
      <path id="ArialMT-6f" d="M 213 1659 
Q 213 2581 725 3025 
Q 1153 3394 1769 3394 
Q 2453 3394 2887 2945 
Q 3322 2497 3322 1706 
Q 3322 1066 3130 698 
Q 2938 331 2570 128 
Q 2203 -75 1769 -75 
Q 1072 -75 642 372 
Q 213 819 213 1659 
z
M 791 1659 
Q 791 1022 1069 705 
Q 1347 388 1769 388 
Q 2188 388 2466 706 
Q 2744 1025 2744 1678 
Q 2744 2294 2464 2611 
Q 2184 2928 1769 2928 
Q 1347 2928 1069 2612 
Q 791 2297 791 1659 
z
" transform="scale(0.015625)"/>
      <path id="ArialMT-75" d="M 2597 0 
L 2597 488 
Q 2209 -75 1544 -75 
Q 1250 -75 995 37 
Q 741 150 617 320 
Q 494 491 444 738 
Q 409 903 409 1263 
L 409 3319 
L 972 3319 
L 972 1478 
Q 972 1038 1006 884 
Q 1059 663 1231 536 
Q 1403 409 1656 409 
Q 1909 409 2131 539 
Q 2353 669 2445 892 
Q 2538 1116 2538 1541 
L 2538 3319 
L 3100 3319 
L 3100 0 
L 2597 0 
z
" transform="scale(0.015625)"/>
      <path id="ArialMT-74" d="M 1650 503 
L 1731 6 
Q 1494 -44 1306 -44 
Q 1000 -44 831 53 
Q 663 150 594 308 
Q 525 466 525 972 
L 525 2881 
L 113 2881 
L 113 3319 
L 525 3319 
L 525 4141 
L 1084 4478 
L 1084 3319 
L 1650 3319 
L 1650 2881 
L 1084 2881 
L 1084 941 
Q 1084 700 1114 631 
Q 1144 563 1211 522 
Q 1278 481 1403 481 
Q 1497 481 1650 503 
z
" transform="scale(0.015625)"/>
      <path id="ArialMT-20" transform="scale(0.015625)"/>
      <path id="ArialMT-66" d="M 556 0 
L 556 2881 
L 59 2881 
L 59 3319 
L 556 3319 
L 556 3672 
Q 556 4006 616 4169 
Q 697 4388 901 4523 
Q 1106 4659 1475 4659 
Q 1713 4659 2000 4603 
L 1916 4113 
Q 1741 4144 1584 4144 
Q 1328 4144 1222 4034 
Q 1116 3925 1116 3625 
L 1116 3319 
L 1763 3319 
L 1763 2881 
L 1116 2881 
L 1116 0 
L 556 0 
z
" transform="scale(0.015625)"/>
      <path id="ArialMT-6c" d="M 409 0 
L 409 4581 
L 972 4581 
L 972 0 
L 409 0 
z
" transform="scale(0.015625)"/>
      <path id="ArialMT-77" d="M 1034 0 
L 19 3319 
L 600 3319 
L 1128 1403 
L 1325 691 
Q 1338 744 1497 1375 
L 2025 3319 
L 2603 3319 
L 3100 1394 
L 3266 759 
L 3456 1400 
L 4025 3319 
L 4572 3319 
L 3534 0 
L 2950 0 
L 2422 1988 
L 2294 2553 
L 1622 0 
L 1034 0 
z
" transform="scale(0.015625)"/>
     </defs>
     <use xlink:href="#ArialMT-63"/>
     <use xlink:href="#ArialMT-68" transform="translate(50 0)"/>
     <use xlink:href="#ArialMT-65" transform="translate(105.615234 0)"/>
     <use xlink:href="#ArialMT-63" transform="translate(161.230469 0)"/>
     <use xlink:href="#ArialMT-6b" transform="translate(211.230469 0)"/>
     <use xlink:href="#ArialMT-6f" transform="translate(261.230469 0)"/>
     <use xlink:href="#ArialMT-75" transform="translate(316.845703 0)"/>
     <use xlink:href="#ArialMT-74" transform="translate(372.460938 0)"/>
     <use xlink:href="#ArialMT-20" transform="translate(400.244141 0)"/>
     <use xlink:href="#ArialMT-66" transform="translate(428.027344 0)"/>
     <use xlink:href="#ArialMT-6c" transform="translate(455.810547 0)"/>
     <use xlink:href="#ArialMT-6f" transform="translate(478.027344 0)"/>
     <use xlink:href="#ArialMT-77" transform="translate(533.642578 0)"/>
    </g>
   </g>
   <g id="text_12">
    <!-- 1:N order items -->
    <g style="fill: #f97316" transform="translate(629.233 202.3488) scale(0.1 -0.1)">
     <defs>
      <path id="ArialMT-72" d="M 416 0 
L 416 3319 
L 922 3319 
L 922 2816 
Q 1116 3169 1280 3281 
Q 1444 3394 1641 3394 
Q 1925 3394 2219 3213 
L 2025 2691 
Q 1819 2813 1613 2813 
Q 1428 2813 1281 2702 
Q 1134 2591 1072 2394 
Q 978 2094 978 1738 
L 978 0 
L 416 0 
z
" transform="scale(0.015625)"/>
      <path id="ArialMT-64" d="M 2575 0 
L 2575 419 
Q 2259 -75 1647 -75 
Q 1250 -75 917 144 
Q 584 363 401 755 
Q 219 1147 219 1656 
Q 219 2153 384 2558 
Q 550 2963 881 3178 
Q 1213 3394 1622 3394 
Q 1922 3394 2156 3267 
Q 2391 3141 2538 2938 
L 2538 4581 
L 3097 4581 
L 3097 0 
L 2575 0 
z
M 797 1656 
Q 797 1019 1065 703 
Q 1334 388 1700 388 
Q 2069 388 2326 689 
Q 2584 991 2584 1609 
Q 2584 2291 2321 2609 
Q 2059 2928 1675 2928 
Q 1300 2928 1048 2622 
Q 797 2316 797 1656 
z
" transform="scale(0.015625)"/>
      <path id="ArialMT-69" d="M 425 3934 
L 425 4581 
L 988 4581 
L 988 3934 
L 425 3934 
z
M 425 0 
L 425 3319 
L 988 3319 
L 988 0 
L 425 0 
z
" transform="scale(0.015625)"/>
      <path id="ArialMT-6d" d="M 422 0 
L 422 3319 
L 925 3319 
L 925 2853 
Q 1081 3097 1340 3245 
Q 1600 3394 1931 3394 
Q 2300 3394 2536 3241 
Q 2772 3088 2869 2813 
Q 3263 3394 3894 3394 
Q 4388 3394 4653 3120 
Q 4919 2847 4919 2278 
L 4919 0 
L 4359 0 
L 4359 2091 
Q 4359 2428 4304 2576 
Q 4250 2725 4106 2815 
Q 3963 2906 3769 2906 
Q 3419 2906 3187 2673 
Q 2956 2441 2956 1928 
L 2956 0 
L 2394 0 
L 2394 2156 
Q 2394 2531 2256 2718 
Q 2119 2906 1806 2906 
Q 1569 2906 1367 2781 
Q 1166 2656 1075 2415 
Q 984 2175 984 1722 
L 984 0 
L 422 0 
z
" transform="scale(0.015625)"/>
      <path id="ArialMT-73" d="M 197 991 
L 753 1078 
Q 800 744 1014 566 
Q 1228 388 1613 388 
Q 2000 388 2187 545 
Q 2375 703 2375 916 
Q 2375 1106 2209 1216 
Q 2094 1291 1634 1406 
Q 1016 1563 777 1677 
Q 538 1791 414 1992 
Q 291 2194 291 2438 
Q 291 2659 392 2848 
Q 494 3038 669 3163 
Q 800 3259 1026 3326 
Q 1253 3394 1513 3394 
Q 1903 3394 2198 3281 
Q 2494 3169 2634 2976 
Q 2775 2784 2828 2463 
L 2278 2388 
Q 2241 2644 2061 2787 
Q 1881 2931 1553 2931 
Q 1166 2931 1000 2803 
Q 834 2675 834 2503 
Q 834 2394 903 2306 
Q 972 2216 1119 2156 
Q 1203 2125 1616 2013 
Q 2213 1853 2448 1751 
Q 2684 1650 2818 1456 
Q 2953 1263 2953 975 
Q 2953 694 2789 445 
Q 2625 197 2315 61 
Q 2006 -75 1616 -75 
Q 969 -75 630 194 
Q 291 463 197 991 
z
" transform="scale(0.015625)"/>
     </defs>
     <use xlink:href="#ArialMT-31"/>
     <use xlink:href="#ArialMT-3a" transform="translate(55.615234 0)"/>
     <use xlink:href="#ArialMT-4e" transform="translate(83.398438 0)"/>
     <use xlink:href="#ArialMT-20" transform="translate(155.615234 0)"/>
     <use xlink:href="#ArialMT-6f" transform="translate(183.398438 0)"/>
     <use xlink:href="#ArialMT-72" transform="translate(239.013672 0)"/>
     <use xlink:href="#ArialMT-64" transform="translate(272.314453 0)"/>
     <use xlink:href="#ArialMT-65" transform="translate(327.929688 0)"/>
     <use xlink:href="#ArialMT-72" transform="translate(383.544922 0)"/>
     <use xlink:href="#ArialMT-20" transform="translate(416.845703 0)"/>
     <use xlink:href="#ArialMT-69" transform="translate(444.628906 0)"/>
     <use xlink:href="#ArialMT-74" transform="translate(466.845703 0)"/>
     <use xlink:href="#ArialMT-65" transform="translate(494.628906 0)"/>
     <use xlink:href="#ArialMT-6d" transform="translate(550.244141 0)"/>
     <use xlink:href="#ArialMT-73" transform="translate(633.544922 0)"/>
    </g>
   </g>
   <g id="text_13">
    <!-- pickup logical mapping -->
    <g style="fill: #94a3b8" transform="translate(440.961188 233.3952) scale(0.1 -0.1)">
     <defs>
      <path id="ArialMT-70" d="M 422 -1272 
L 422 3319 
L 934 3319 
L 934 2888 
Q 1116 3141 1344 3267 
Q 1572 3394 1897 3394 
Q 2322 3394 2647 3175 
Q 2972 2956 3137 2557 
Q 3303 2159 3303 1684 
Q 3303 1175 3120 767 
Q 2938 359 2589 142 
Q 2241 -75 1856 -75 
Q 1575 -75 1351 44 
Q 1128 163 984 344 
L 984 -1272 
L 422 -1272 
z
M 931 1641 
Q 931 1000 1190 694 
Q 1450 388 1819 388 
Q 2194 388 2461 705 
Q 2728 1022 2728 1688 
Q 2728 2322 2467 2637 
Q 2206 2953 1844 2953 
Q 1484 2953 1207 2617 
Q 931 2281 931 1641 
z
" transform="scale(0.015625)"/>
      <path id="ArialMT-67" d="M 319 -275 
L 866 -356 
Q 900 -609 1056 -725 
Q 1266 -881 1628 -881 
Q 2019 -881 2231 -725 
Q 2444 -569 2519 -288 
Q 2563 -116 2559 434 
Q 2191 0 1641 0 
Q 956 0 581 494 
Q 206 988 206 1678 
Q 206 2153 378 2554 
Q 550 2956 876 3175 
Q 1203 3394 1644 3394 
Q 2231 3394 2613 2919 
L 2613 3319 
L 3131 3319 
L 3131 450 
Q 3131 -325 2973 -648 
Q 2816 -972 2473 -1159 
Q 2131 -1347 1631 -1347 
Q 1038 -1347 672 -1080 
Q 306 -813 319 -275 
z
M 784 1719 
Q 784 1066 1043 766 
Q 1303 466 1694 466 
Q 2081 466 2343 764 
Q 2606 1063 2606 1700 
Q 2606 2309 2336 2618 
Q 2066 2928 1684 2928 
Q 1309 2928 1046 2623 
Q 784 2319 784 1719 
z
" transform="scale(0.015625)"/>
      <path id="ArialMT-61" d="M 2588 409 
Q 2275 144 1986 34 
Q 1697 -75 1366 -75 
Q 819 -75 525 192 
Q 231 459 231 875 
Q 231 1119 342 1320 
Q 453 1522 633 1644 
Q 813 1766 1038 1828 
Q 1203 1872 1538 1913 
Q 2219 1994 2541 2106 
Q 2544 2222 2544 2253 
Q 2544 2597 2384 2738 
Q 2169 2928 1744 2928 
Q 1347 2928 1158 2789 
Q 969 2650 878 2297 
L 328 2372 
Q 403 2725 575 2942 
Q 747 3159 1072 3276 
Q 1397 3394 1825 3394 
Q 2250 3394 2515 3294 
Q 2781 3194 2906 3042 
Q 3031 2891 3081 2659 
Q 3109 2516 3109 2141 
L 3109 1391 
Q 3109 606 3145 398 
Q 3181 191 3288 0 
L 2700 0 
Q 2613 175 2588 409 
z
M 2541 1666 
Q 2234 1541 1622 1453 
Q 1275 1403 1131 1340 
Q 988 1278 909 1158 
Q 831 1038 831 891 
Q 831 666 1001 516 
Q 1172 366 1500 366 
Q 1825 366 2078 508 
Q 2331 650 2450 897 
Q 2541 1088 2541 1459 
L 2541 1666 
z
" transform="scale(0.015625)"/>
      <path id="ArialMT-6e" d="M 422 0 
L 422 3319 
L 928 3319 
L 928 2847 
Q 1294 3394 1984 3394 
Q 2284 3394 2536 3286 
Q 2788 3178 2913 3003 
Q 3038 2828 3088 2588 
Q 3119 2431 3119 2041 
L 3119 0 
L 2556 0 
L 2556 2019 
Q 2556 2363 2490 2533 
Q 2425 2703 2258 2804 
Q 2091 2906 1866 2906 
Q 1506 2906 1245 2678 
Q 984 2450 984 1813 
L 984 0 
L 422 0 
z
" transform="scale(0.015625)"/>
     </defs>
     <use xlink:href="#ArialMT-70"/>
     <use xlink:href="#ArialMT-69" transform="translate(55.615234 0)"/>
     <use xlink:href="#ArialMT-63" transform="translate(77.832031 0)"/>
     <use xlink:href="#ArialMT-6b" transform="translate(127.832031 0)"/>
     <use xlink:href="#ArialMT-75" transform="translate(177.832031 0)"/>
     <use xlink:href="#ArialMT-70" transform="translate(233.447266 0)"/>
     <use xlink:href="#ArialMT-20" transform="translate(289.0625 0)"/>
     <use xlink:href="#ArialMT-6c" transform="translate(316.845703 0)"/>
     <use xlink:href="#ArialMT-6f" transform="translate(339.0625 0)"/>
     <use xlink:href="#ArialMT-67" transform="translate(394.677734 0)"/>
     <use xlink:href="#ArialMT-69" transform="translate(450.292969 0)"/>
     <use xlink:href="#ArialMT-63" transform="translate(472.509766 0)"/>
     <use xlink:href="#ArialMT-61" transform="translate(522.509766 0)"/>
     <use xlink:href="#ArialMT-6c" transform="translate(578.125 0)"/>
     <use xlink:href="#ArialMT-20" transform="translate(600.341797 0)"/>
     <use xlink:href="#ArialMT-6d" transform="translate(628.125 0)"/>
     <use xlink:href="#ArialMT-61" transform="translate(711.425781 0)"/>
     <use xlink:href="#ArialMT-70" transform="translate(767.041016 0)"/>
     <use xlink:href="#ArialMT-70" transform="translate(822.65625 0)"/>
     <use xlink:href="#ArialMT-69" transform="translate(878.271484 0)"/>
     <use xlink:href="#ArialMT-6e" transform="translate(900.488281 0)"/>
     <use xlink:href="#ArialMT-67" transform="translate(956.103516 0)"/>
    </g>
   </g>
   <g id="text_14">
    <!-- product snapshot link -->
    <g style="fill: #a855f7" transform="translate(459.920344 193.4784) scale(0.1 -0.1)">
     <use xlink:href="#ArialMT-70"/>
     <use xlink:href="#ArialMT-72" transform="translate(55.615234 0)"/>
     <use xlink:href="#ArialMT-6f" transform="translate(88.916016 0)"/>
     <use xlink:href="#ArialMT-64" transform="translate(144.53125 0)"/>
     <use xlink:href="#ArialMT-75" transform="translate(200.146484 0)"/>
     <use xlink:href="#ArialMT-63" transform="translate(255.761719 0)"/>
     <use xlink:href="#ArialMT-74" transform="translate(305.761719 0)"/>
     <use xlink:href="#ArialMT-20" transform="translate(333.544922 0)"/>
     <use xlink:href="#ArialMT-73" transform="translate(361.328125 0)"/>
     <use xlink:href="#ArialMT-6e" transform="translate(411.328125 0)"/>
     <use xlink:href="#ArialMT-61" transform="translate(466.943359 0)"/>
     <use xlink:href="#ArialMT-70" transform="translate(522.558594 0)"/>
     <use xlink:href="#ArialMT-73" transform="translate(578.173828 0)"/>
     <use xlink:href="#ArialMT-68" transform="translate(628.173828 0)"/>
     <use xlink:href="#ArialMT-6f" transform="translate(683.789062 0)"/>
     <use xlink:href="#ArialMT-74" transform="translate(739.404297 0)"/>
     <use xlink:href="#ArialMT-20" transform="translate(767.1875 0)"/>
     <use xlink:href="#ArialMT-6c" transform="translate(794.970703 0)"/>
     <use xlink:href="#ArialMT-69" transform="translate(817.1875 0)"/>
     <use xlink:href="#ArialMT-6e" transform="translate(839.404297 0)"/>
     <use xlink:href="#ArialMT-6b" transform="translate(895.019531 0)"/>
    </g>
   </g>
   <g id="text_15">
    <g id="patch_15">
     <path d="M 30.636 423.5236 
L 452.85725 423.5236 
Q 456.70725 423.5236 456.70725 419.6736 
L 456.70725 397.411319 
Q 456.70725 393.561319 452.85725 393.561319 
L 30.636 393.561319 
Q 26.786 393.561319 26.786 397.411319 
L 26.786 419.6736 
Q 26.786 423.5236 30.636 423.5236 
z
" style="fill: #ffffff; stroke: #cbd5e1; stroke-linejoin: miter"/>
    </g>
    <!-- AutoMigrate models: Category, Product, User, CartItem, Order, OrderItem, PickupPoint -->
    <g style="fill: #334155" transform="translate(30.636 405.42585) scale(0.11 -0.11)">
     <defs>
      <path id="ArialMT-41" d="M -9 0 
L 1750 4581 
L 2403 4581 
L 4278 0 
L 3588 0 
L 3053 1388 
L 1138 1388 
L 634 0 
L -9 0 
z
M 1313 1881 
L 2866 1881 
L 2388 3150 
Q 2169 3728 2063 4100 
Q 1975 3659 1816 3225 
L 1313 1881 
z
" transform="scale(0.015625)"/>
      <path id="ArialMT-4d" d="M 475 0 
L 475 4581 
L 1388 4581 
L 2472 1338 
Q 2622 884 2691 659 
Q 2769 909 2934 1394 
L 4031 4581 
L 4847 4581 
L 4847 0 
L 4263 0 
L 4263 3834 
L 2931 0 
L 2384 0 
L 1059 3900 
L 1059 0 
L 475 0 
z
" transform="scale(0.015625)"/>
      <path id="ArialMT-43" d="M 3763 1606 
L 4369 1453 
Q 4178 706 3683 314 
Q 3188 -78 2472 -78 
Q 1731 -78 1267 223 
Q 803 525 561 1097 
Q 319 1669 319 2325 
Q 319 3041 592 3573 
Q 866 4106 1370 4382 
Q 1875 4659 2481 4659 
Q 3169 4659 3637 4309 
Q 4106 3959 4291 3325 
L 3694 3184 
Q 3534 3684 3231 3912 
Q 2928 4141 2469 4141 
Q 1941 4141 1586 3887 
Q 1231 3634 1087 3207 
Q 944 2781 944 2328 
Q 944 1744 1114 1308 
Q 1284 872 1643 656 
Q 2003 441 2422 441 
Q 2931 441 3284 734 
Q 3638 1028 3763 1606 
z
" transform="scale(0.015625)"/>
      <path id="ArialMT-79" d="M 397 -1278 
L 334 -750 
Q 519 -800 656 -800 
Q 844 -800 956 -737 
Q 1069 -675 1141 -563 
Q 1194 -478 1313 -144 
Q 1328 -97 1363 -6 
L 103 3319 
L 709 3319 
L 1400 1397 
Q 1534 1031 1641 628 
Q 1738 1016 1872 1384 
L 2581 3319 
L 3144 3319 
L 1881 -56 
Q 1678 -603 1566 -809 
Q 1416 -1088 1222 -1217 
Q 1028 -1347 759 -1347 
Q 597 -1347 397 -1278 
z
" transform="scale(0.015625)"/>
      <path id="ArialMT-2c" d="M 569 0 
L 569 641 
L 1209 641 
L 1209 0 
Q 1209 -353 1084 -570 
Q 959 -788 688 -906 
L 531 -666 
Q 709 -588 793 -436 
Q 878 -284 888 0 
L 569 0 
z
" transform="scale(0.015625)"/>
      <path id="ArialMT-50" d="M 494 0 
L 494 4581 
L 2222 4581 
Q 2678 4581 2919 4538 
Q 3256 4481 3484 4323 
Q 3713 4166 3852 3881 
Q 3991 3597 3991 3256 
Q 3991 2672 3619 2267 
Q 3247 1863 2275 1863 
L 1100 1863 
L 1100 0 
L 494 0 
z
M 1100 2403 
L 2284 2403 
Q 2872 2403 3119 2622 
Q 3366 2841 3366 3238 
Q 3366 3525 3220 3729 
Q 3075 3934 2838 4000 
Q 2684 4041 2272 4041 
L 1100 4041 
L 1100 2403 
z
" transform="scale(0.015625)"/>
      <path id="ArialMT-55" d="M 3500 4581 
L 4106 4581 
L 4106 1934 
Q 4106 1244 3950 837 
Q 3794 431 3386 176 
Q 2978 -78 2316 -78 
Q 1672 -78 1262 144 
Q 853 366 678 786 
Q 503 1206 503 1934 
L 503 4581 
L 1109 4581 
L 1109 1938 
Q 1109 1341 1220 1058 
Q 1331 775 1601 622 
Q 1872 469 2263 469 
Q 2931 469 3215 772 
Q 3500 1075 3500 1938 
L 3500 4581 
z
" transform="scale(0.015625)"/>
      <path id="ArialMT-49" d="M 597 0 
L 597 4581 
L 1203 4581 
L 1203 0 
L 597 0 
z
" transform="scale(0.015625)"/>
      <path id="ArialMT-4f" d="M 309 2231 
Q 309 3372 921 4017 
Q 1534 4663 2503 4663 
Q 3138 4663 3647 4359 
Q 4156 4056 4423 3514 
Q 4691 2972 4691 2284 
Q 4691 1588 4409 1038 
Q 4128 488 3612 205 
Q 3097 -78 2500 -78 
Q 1853 -78 1343 234 
Q 834 547 571 1087 
Q 309 1628 309 2231 
z
M 934 2222 
Q 934 1394 1379 917 
Q 1825 441 2497 441 
Q 3181 441 3623 922 
Q 4066 1403 4066 2288 
Q 4066 2847 3877 3264 
Q 3688 3681 3323 3911 
Q 2959 4141 2506 4141 
Q 1863 4141 1398 3698 
Q 934 3256 934 2222 
z
" transform="scale(0.015625)"/>
     </defs>
     <use xlink:href="#ArialMT-41"/>
     <use xlink:href="#ArialMT-75" transform="translate(66.699219 0)"/>
     <use xlink:href="#ArialMT-74" transform="translate(122.314453 0)"/>
     <use xlink:href="#ArialMT-6f" transform="translate(150.097656 0)"/>
     <use xlink:href="#ArialMT-4d" transform="translate(205.712891 0)"/>
     <use xlink:href="#ArialMT-69" transform="translate(289.013672 0)"/>
     <use xlink:href="#ArialMT-67" transform="translate(311.230469 0)"/>
     <use xlink:href="#ArialMT-72" transform="translate(366.845703 0)"/>
     <use xlink:href="#ArialMT-61" transform="translate(400.146484 0)"/>
     <use xlink:href="#ArialMT-74" transform="translate(455.761719 0)"/>
     <use xlink:href="#ArialMT-65" transform="translate(483.544922 0)"/>
     <use xlink:href="#ArialMT-20" transform="translate(539.160156 0)"/>
     <use xlink:href="#ArialMT-6d" transform="translate(566.943359 0)"/>
     <use xlink:href="#ArialMT-6f" transform="translate(650.244141 0)"/>
     <use xlink:href="#ArialMT-64" transform="translate(705.859375 0)"/>
     <use xlink:href="#ArialMT-65" transform="translate(761.474609 0)"/>
     <use xlink:href="#ArialMT-6c" transform="translate(817.089844 0)"/>
     <use xlink:href="#ArialMT-73" transform="translate(839.306641 0)"/>
     <use xlink:href="#ArialMT-3a" transform="translate(889.306641 0)"/>
     <use xlink:href="#ArialMT-20" transform="translate(917.089844 0)"/>
     <use xlink:href="#ArialMT-43" transform="translate(944.873047 0)"/>
     <use xlink:href="#ArialMT-61" transform="translate(1017.089844 0)"/>
     <use xlink:href="#ArialMT-74" transform="translate(1072.705078 0)"/>
     <use xlink:href="#ArialMT-65" transform="translate(1100.488281 0)"/>
     <use xlink:href="#ArialMT-67" transform="translate(1156.103516 0)"/>
     <use xlink:href="#ArialMT-6f" transform="translate(1211.71875 0)"/>
     <use xlink:href="#ArialMT-72" transform="translate(1267.333984 0)"/>
     <use xlink:href="#ArialMT-79" transform="translate(1300.634766 0)"/>
     <use xlink:href="#ArialMT-2c" transform="translate(1343.259766 0)"/>
     <use xlink:href="#ArialMT-20" transform="translate(1371.042969 0)"/>
     <use xlink:href="#ArialMT-50" transform="translate(1398.826172 0)"/>
     <use xlink:href="#ArialMT-72" transform="translate(1465.525391 0)"/>
     <use xlink:href="#ArialMT-6f" transform="translate(1498.826172 0)"/>
     <use xlink:href="#ArialMT-64" transform="translate(1554.441406 0)"/>
     <use xlink:href="#ArialMT-75" transform="translate(1610.056641 0)"/>
     <use xlink:href="#ArialMT-63" transform="translate(1665.671875 0)"/>
     <use xlink:href="#ArialMT-74" transform="translate(1715.671875 0)"/>
     <use xlink:href="#ArialMT-2c" transform="translate(1743.455078 0)"/>
     <use xlink:href="#ArialMT-20" transform="translate(1771.238281 0)"/>
     <use xlink:href="#ArialMT-55" transform="translate(1799.021484 0)"/>
     <use xlink:href="#ArialMT-73" transform="translate(1871.238281 0)"/>
     <use xlink:href="#ArialMT-65" transform="translate(1921.238281 0)"/>
     <use xlink:href="#ArialMT-72" transform="translate(1976.853516 0)"/>
     <use xlink:href="#ArialMT-2c" transform="translate(2004.654297 0)"/>
     <use xlink:href="#ArialMT-20" transform="translate(2032.4375 0)"/>
     <use xlink:href="#ArialMT-43" transform="translate(2060.220703 0)"/>
     <use xlink:href="#ArialMT-61" transform="translate(2132.4375 0)"/>
     <use xlink:href="#ArialMT-72" transform="translate(2188.052734 0)"/>
     <use xlink:href="#ArialMT-74" transform="translate(2221.353516 0)"/>
     <use xlink:href="#ArialMT-49" transform="translate(2249.136719 0)"/>
     <use xlink:href="#ArialMT-74" transform="translate(2276.919922 0)"/>
     <use xlink:href="#ArialMT-65" transform="translate(2304.703125 0)"/>
     <use xlink:href="#ArialMT-6d" transform="translate(2360.318359 0)"/>
     <use xlink:href="#ArialMT-2c" transform="translate(2443.619141 0)"/>
     <use xlink:href="#ArialMT-20" transform="translate(2471.402344 0)"/>
     <use xlink:href="#ArialMT-4f" transform="translate(2499.185547 0)"/>
     <use xlink:href="#ArialMT-72" transform="translate(2576.96875 0)"/>
     <use xlink:href="#ArialMT-64" transform="translate(2610.269531 0)"/>
     <use xlink:href="#ArialMT-65" transform="translate(2665.884766 0)"/>
     <use xlink:href="#ArialMT-72" transform="translate(2721.5 0)"/>
     <use xlink:href="#ArialMT-2c" transform="translate(2749.300781 0)"/>
     <use xlink:href="#ArialMT-20" transform="translate(2777.083984 0)"/>
     <use xlink:href="#ArialMT-4f" transform="translate(2804.867188 0)"/>
     <use xlink:href="#ArialMT-72" transform="translate(2882.650391 0)"/>
     <use xlink:href="#ArialMT-64" transform="translate(2915.951172 0)"/>
     <use xlink:href="#ArialMT-65" transform="translate(2971.566406 0)"/>
     <use xlink:href="#ArialMT-72" transform="translate(3027.181641 0)"/>
     <use xlink:href="#ArialMT-49" transform="translate(3060.482422 0)"/>
     <use xlink:href="#ArialMT-74" transform="translate(3088.265625 0)"/>
     <use xlink:href="#ArialMT-65" transform="translate(3116.048828 0)"/>
     <use xlink:href="#ArialMT-6d" transform="translate(3171.664062 0)"/>
     <use xlink:href="#ArialMT-2c" transform="translate(3254.964844 0)"/>
     <use xlink:href="#ArialMT-20" transform="translate(3282.748047 0)"/>
     <use xlink:href="#ArialMT-50" transform="translate(3310.53125 0)"/>
     <use xlink:href="#ArialMT-69" transform="translate(3377.230469 0)"/>
     <use xlink:href="#ArialMT-63" transform="translate(3399.447266 0)"/>
     <use xlink:href="#ArialMT-6b" transform="translate(3449.447266 0)"/>
     <use xlink:href="#ArialMT-75" transform="translate(3499.447266 0)"/>
     <use xlink:href="#ArialMT-70" transform="translate(3555.0625 0)"/>
     <use xlink:href="#ArialMT-50" transform="translate(3610.677734 0)"/>
     <use xlink:href="#ArialMT-6f" transform="translate(3677.376953 0)"/>
     <use xlink:href="#ArialMT-69" transform="translate(3732.992188 0)"/>
     <use xlink:href="#ArialMT-6e" transform="translate(3755.208984 0)"/>
     <use xlink:href="#ArialMT-74" transform="translate(3810.824219 0)"/>
    </g>
    <!-- SQLite file: catalog/catalog.db -->
    <g style="fill: #334155" transform="translate(30.636 417.358444) scale(0.11 -0.11)">
     <defs>
      <path id="ArialMT-53" d="M 288 1472 
L 859 1522 
Q 900 1178 1048 958 
Q 1197 738 1509 602 
Q 1822 466 2213 466 
Q 2559 466 2825 569 
Q 3091 672 3220 851 
Q 3350 1031 3350 1244 
Q 3350 1459 3225 1620 
Q 3100 1781 2813 1891 
Q 2628 1963 1997 2114 
Q 1366 2266 1113 2400 
Q 784 2572 623 2826 
Q 463 3081 463 3397 
Q 463 3744 659 4045 
Q 856 4347 1234 4503 
Q 1613 4659 2075 4659 
Q 2584 4659 2973 4495 
Q 3363 4331 3572 4012 
Q 3781 3694 3797 3291 
L 3216 3247 
Q 3169 3681 2898 3903 
Q 2628 4125 2100 4125 
Q 1550 4125 1298 3923 
Q 1047 3722 1047 3438 
Q 1047 3191 1225 3031 
Q 1400 2872 2139 2705 
Q 2878 2538 3153 2413 
Q 3553 2228 3743 1945 
Q 3934 1663 3934 1294 
Q 3934 928 3725 604 
Q 3516 281 3123 101 
Q 2731 -78 2241 -78 
Q 1619 -78 1198 103 
Q 778 284 539 648 
Q 300 1013 288 1472 
z
" transform="scale(0.015625)"/>
      <path id="ArialMT-51" d="M 3966 491 
Q 4388 200 4744 66 
L 4566 -356 
Q 4072 -178 3581 206 
Q 3072 -78 2456 -78 
Q 1834 -78 1328 222 
Q 822 522 548 1065 
Q 275 1609 275 2291 
Q 275 2969 550 3525 
Q 825 4081 1333 4372 
Q 1841 4663 2469 4663 
Q 3103 4663 3612 4361 
Q 4122 4059 4389 3517 
Q 4656 2975 4656 2294 
Q 4656 1728 4484 1276 
Q 4313 825 3966 491 
z
M 2631 1266 
Q 3156 1119 3497 828 
Q 4031 1316 4031 2294 
Q 4031 2850 3842 3265 
Q 3653 3681 3289 3911 
Q 2925 4141 2472 4141 
Q 1794 4141 1347 3677 
Q 900 3213 900 2291 
Q 900 1397 1342 919 
Q 1784 441 2472 441 
Q 2797 441 3084 563 
Q 2800 747 2484 825 
L 2631 1266 
z
" transform="scale(0.015625)"/>
      <path id="ArialMT-4c" d="M 469 0 
L 469 4581 
L 1075 4581 
L 1075 541 
L 3331 541 
L 3331 0 
L 469 0 
z
" transform="scale(0.015625)"/>
      <path id="ArialMT-2f" d="M 0 -78 
L 1328 4659 
L 1778 4659 
L 453 -78 
L 0 -78 
z
" transform="scale(0.015625)"/>
      <path id="ArialMT-2e" d="M 581 0 
L 581 641 
L 1222 641 
L 1222 0 
L 581 0 
z
" transform="scale(0.015625)"/>
      <path id="ArialMT-62" d="M 941 0 
L 419 0 
L 419 4581 
L 981 4581 
L 981 2947 
Q 1338 3394 1891 3394 
Q 2197 3394 2470 3270 
Q 2744 3147 2920 2923 
Q 3097 2700 3197 2384 
Q 3297 2069 3297 1709 
Q 3297 856 2875 390 
Q 2453 -75 1863 -75 
Q 1275 -75 941 416 
L 941 0 
z
M 934 1684 
Q 934 1088 1097 822 
Q 1363 388 1816 388 
Q 2184 388 2453 708 
Q 2722 1028 2722 1663 
Q 2722 2313 2464 2622 
Q 2206 2931 1841 2931 
Q 1472 2931 1203 2611 
Q 934 2291 934 1684 
z
" transform="scale(0.015625)"/>
     </defs>
     <use xlink:href="#ArialMT-53"/>
     <use xlink:href="#ArialMT-51" transform="translate(66.699219 0)"/>
     <use xlink:href="#ArialMT-4c" transform="translate(144.482422 0)"/>
     <use xlink:href="#ArialMT-69" transform="translate(200.097656 0)"/>
     <use xlink:href="#ArialMT-74" transform="translate(222.314453 0)"/>
     <use xlink:href="#ArialMT-65" transform="translate(250.097656 0)"/>
     <use xlink:href="#ArialMT-20" transform="translate(305.712891 0)"/>
     <use xlink:href="#ArialMT-66" transform="translate(333.496094 0)"/>
     <use xlink:href="#ArialMT-69" transform="translate(361.279297 0)"/>
     <use xlink:href="#ArialMT-6c" transform="translate(383.496094 0)"/>
     <use xlink:href="#ArialMT-65" transform="translate(405.712891 0)"/>
     <use xlink:href="#ArialMT-3a" transform="translate(461.328125 0)"/>
     <use xlink:href="#ArialMT-20" transform="translate(489.111328 0)"/>
     <use xlink:href="#ArialMT-63" transform="translate(516.894531 0)"/>
     <use xlink:href="#ArialMT-61" transform="translate(566.894531 0)"/>
     <use xlink:href="#ArialMT-74" transform="translate(622.509766 0)"/>
     <use xlink:href="#ArialMT-61" transform="translate(650.292969 0)"/>
     <use xlink:href="#ArialMT-6c" transform="translate(705.908203 0)"/>
     <use xlink:href="#ArialMT-6f" transform="translate(728.125 0)"/>
     <use xlink:href="#ArialMT-67" transform="translate(783.740234 0)"/>
     <use xlink:href="#ArialMT-2f" transform="translate(839.355469 0)"/>
     <use xlink:href="#ArialMT-63" transform="translate(867.138672 0)"/>
     <use xlink:href="#ArialMT-61" transform="translate(917.138672 0)"/>
     <use xlink:href="#ArialMT-74" transform="translate(972.753906 0)"/>
     <use xlink:href="#ArialMT-61" transform="translate(1000.537109 0)"/>
     <use xlink:href="#ArialMT-6c" transform="translate(1056.152344 0)"/>
     <use xlink:href="#ArialMT-6f" transform="translate(1078.369141 0)"/>
     <use xlink:href="#ArialMT-67" transform="translate(1133.984375 0)"/>
     <use xlink:href="#ArialMT-2e" transform="translate(1189.599609 0)"/>
     <use xlink:href="#ArialMT-64" transform="translate(1217.382812 0)"/>
     <use xlink:href="#ArialMT-62" transform="translate(1272.998047 0)"/>
    </g>
   </g>
  </g>
 </g>
 <defs>
  <clipPath id="pa11d5097d1">
   <rect x="7.2" y="7.2" width="781.2" height="443.52"/>
  </clipPath>
 </defs>
</svg>
